<?xml version="1.0" encoding="UTF-8"?>
<svg xmlns="http://www.w3.org/2000/svg" viewBox="0 0 300 120">
  <g id="sleigh-group" fill="none" stroke="none" transform="scale(1)">
    <g opacity="0.12">
      <circle cx="60" cy="20" r="12" fill="#fff" />
      <circle cx="90" cy="12" r="6" fill="#fff" />
    </g>

    <g id="reindeer" transform="translate(10,30)" fill="#2b2b2b">
      <g class="reindeer re1" transform="translate(0,0)">
        <ellipse cx="18" cy="18" rx="10" ry="6" />
        <circle cx="28" cy="8" r="7" />
        <rect x="8" y="12" width="3" height="12" rx="1" />
        <rect x="20" y="12" width="3" height="12" rx="1" />
        <path d="M25 6 L32 2" stroke="#2b2b2b" stroke-width="2" stroke-linecap="round" />
      </g>
      <g class="reindeer re2" transform="translate(48,2)">
        <ellipse cx="18" cy="18" rx="10" ry="6" />
        <circle cx="28" cy="8" r="7" />
        <rect x="8" y="12" width="3" height="12" rx="1" />
        <rect x="20" y="12" width="3" height="12" rx="1" />
        <path d="M25 6 L32 2" stroke="#2b2b2b" stroke-width="2" stroke-linecap="round" />
      </g>
      <g class="reindeer re3" transform="translate(96,8)">
        <ellipse cx="18" cy="18" rx="10" ry="6" />
        <circle cx="28" cy="8" r="7" />
        <rect x="8" y="12" width="3" height="12" rx="1" />
        <rect x="20" y="12" width="3" height="12" rx="1" />
        <path d="M25 6 L32 2" stroke="#2b2b2b" stroke-width="2" stroke-linecap="round" />
      </g>
    </g>

    <g id="sleigh" transform="translate(170,50)" fill="#b22222">
      <rect x="0" y="8" rx="6" ry="6" width="70" height="22" />
      <path d="M0 30 Q10 40 40 35 Q70 30 80 24" fill="#a01919" />
      <g transform="translate(18,-8)">
        <circle cx="18" cy="10" r="8" fill="#fff0d9" />
        <rect x="12" y="16" width="12" height="16" rx="3" fill="#b22222" />
        <rect x="8" y="28" width="20" height="4" fill="#000" />
      </g>
    </g>

    <g opacity="0.08" transform="translate(0,60)">
      <ellipse cx="150" cy="32" rx="120" ry="18" fill="#000" />
    </g>
  </g>
</svg>
